<svg viewBox="5 3.75 9.5 12.2" fill="none" xmlns="http://www.w3.org/2000/svg">
<mask id="path-1-outside-1_0_1" maskUnits="userSpaceOnUse" x="5" y="5" width="10" height="10" fill="black">
<rect fill="white" x="5" y="5" width="10" height="10"/>
<path d="M7.336 6.424H12.584L9.96 12.112L7.336 6.424ZM9.96 11.408L12.128 6.72H7.8L9.96 11.408Z"/>
</mask>
<path d="M7.336 6.424V5.424H5.7734L6.42797 6.8429L7.336 6.424ZM12.584 6.424L13.492 6.8429L14.1466 5.424H12.584V6.424ZM9.96 12.112L9.05197 12.5309L9.96 14.4992L10.868 12.5309L9.96 12.112ZM9.96 11.408L9.05177 11.8265L9.95832 13.794L10.8676 11.8277L9.96 11.408ZM12.128 6.72L13.0356 7.13975L13.6922 5.72H12.128V6.72ZM7.8 6.72V5.72H6.23821L6.89177 7.13847L7.8 6.72ZM7.336 6.424V7.424H12.584V6.424V5.424H7.336V6.424ZM12.584 6.424L11.676 6.0051L9.05197 11.6931L9.96 12.112L10.868 12.5309L13.492 6.8429L12.584 6.424ZM9.96 12.112L10.868 11.6931L8.24403 6.0051L7.336 6.424L6.42797 6.8429L9.05197 12.5309L9.96 12.112ZM9.96 11.408L10.8676 11.8277L13.0356 7.13975L12.128 6.72L11.2204 6.30025L9.05236 10.9883L9.96 11.408ZM12.128 6.72V5.72H7.8V6.72V7.72H12.128V6.72ZM7.8 6.72L6.89177 7.13847L9.05177 11.8265L9.96 11.408L10.8682 10.9895L8.70823 6.30153L7.8 6.72Z" fill="#003FB9" fill-opacity="0.93" mask="url(#path-1-outside-1_0_1)"/>
<path d="M21.652 5.648V6.092H19.156V13.556H21.652V14H16.24V13.556H18.724V6.092H16.24V5.648H21.652ZM29.6348 5.924C30.1148 6.148 30.4908 6.48 30.7628 6.92C31.0428 7.36 31.1828 7.848 31.1828 8.384C31.1828 9.008 30.9908 9.568 30.6068 10.064C30.2308 10.552 29.7468 10.876 29.1548 11.036L31.2788 14H30.7508L28.6988 11.12L28.3148 11.132H25.3028V14H24.8588V5.648H28.0388C28.3908 5.648 28.6908 5.672 28.9388 5.72C29.1948 5.76 29.4268 5.828 29.6348 5.924ZM28.4348 10.688C28.8508 10.688 29.2348 10.584 29.5868 10.376C29.9388 10.168 30.2188 9.888 30.4268 9.536C30.6348 9.184 30.7388 8.8 30.7388 8.384C30.7388 7.92 30.6148 7.5 30.3668 7.124C30.1268 6.748 29.7908 6.468 29.3588 6.284C29.0468 6.156 28.6068 6.092 28.0388 6.092H25.3028V10.688H28.4348ZM36.7056 5.468C37.3296 5.468 37.9056 5.624 38.4336 5.936C38.9616 6.24 39.3776 6.656 39.6816 7.184C39.9936 7.712 40.1496 8.288 40.1496 8.912V10.736C40.1496 11.36 39.9936 11.936 39.6816 12.464C39.3776 12.992 38.9616 13.412 38.4336 13.724C37.9056 14.028 37.3296 14.18 36.7056 14.18C36.0816 14.18 35.5056 14.028 34.9776 13.724C34.4496 13.412 34.0296 12.992 33.7176 12.464C33.4136 11.936 33.2616 11.36 33.2616 10.736V8.912C33.2616 8.288 33.4136 7.712 33.7176 7.184C34.0296 6.656 34.4496 6.24 34.9776 5.936C35.5056 5.624 36.0816 5.468 36.7056 5.468ZM33.7056 10.736C33.7056 11.28 33.8376 11.784 34.1016 12.248C34.3736 12.704 34.7376 13.068 35.1936 13.34C35.6576 13.604 36.1616 13.736 36.7056 13.736C37.2496 13.736 37.7496 13.604 38.2056 13.34C38.6696 13.068 39.0336 12.704 39.2976 12.248C39.5696 11.784 39.7056 11.28 39.7056 10.736V8.912C39.7056 8.368 39.5696 7.868 39.2976 7.412C39.0336 6.948 38.6696 6.584 38.2056 6.32C37.7496 6.048 37.2496 5.912 36.7056 5.912C36.1616 5.912 35.6576 6.048 35.1936 6.32C34.7376 6.584 34.3736 6.948 34.1016 7.412C33.8376 7.868 33.7056 8.368 33.7056 8.912V10.736Z" fill="#81B5FF"/>
<path d="M21.652 5.648H21.802V5.498H21.652V5.648ZM21.652 6.092V6.242H21.802V6.092H21.652ZM19.156 6.092V5.942H19.006V6.092H19.156ZM19.156 13.556H19.006V13.706H19.156V13.556ZM21.652 13.556H21.802V13.406H21.652V13.556ZM21.652 14V14.15H21.802V14H21.652ZM16.24 14H16.09V14.15H16.24V14ZM16.24 13.556V13.406H16.09V13.556H16.24ZM18.724 13.556V13.706H18.874V13.556H18.724ZM18.724 6.092H18.874V5.942H18.724V6.092ZM16.24 6.092H16.09V6.242H16.24V6.092ZM16.24 5.648V5.498H16.09V5.648H16.24ZM21.652 5.648H21.502V6.092H21.652H21.802V5.648H21.652ZM21.652 6.092V5.942H19.156V6.092V6.242H21.652V6.092ZM19.156 6.092H19.006V13.556H19.156H19.306V6.092H19.156ZM19.156 13.556V13.706H21.652V13.556V13.406H19.156V13.556ZM21.652 13.556H21.502V14H21.652H21.802V13.556H21.652ZM21.652 14V13.85H16.24V14V14.15H21.652V14ZM16.24 14H16.39V13.556H16.24H16.09V14H16.24ZM16.24 13.556V13.706H18.724V13.556V13.406H16.24V13.556ZM18.724 13.556H18.874V6.092H18.724H18.574V13.556H18.724ZM18.724 6.092V5.942H16.24V6.092V6.242H18.724V6.092ZM16.24 6.092H16.39V5.648H16.24H16.09V6.092H16.24ZM16.24 5.648V5.798H21.652V5.648V5.498H16.24V5.648ZM29.6348 5.924L29.6982 5.78807L29.6977 5.78781L29.6348 5.924ZM30.7628 6.92L30.6352 6.99888L30.6363 7.00053L30.7628 6.92ZM30.6068 10.064L30.4882 9.97217L30.488 9.97245L30.6068 10.064ZM29.1548 11.036L29.1157 10.8912L28.9069 10.9476L29.0329 11.1234L29.1548 11.036ZM31.2788 14V14.15H31.5708L31.4007 13.9126L31.2788 14ZM30.7508 14L30.6286 14.087L30.6735 14.15H30.7508V14ZM28.6988 11.12L28.821 11.033L28.7744 10.9676L28.6941 10.9701L28.6988 11.12ZM28.3148 11.132V11.2821L28.3195 11.2819L28.3148 11.132ZM25.3028 11.132V10.982H25.1528V11.132H25.3028ZM25.3028 14V14.15H25.4528V14H25.3028ZM24.8588 14H24.7088V14.15H24.8588V14ZM24.8588 5.648V5.498H24.7088V5.648H24.8588ZM28.9388 5.72L28.9103 5.86736L28.9157 5.8682L28.9388 5.72ZM29.5868 10.376L29.5105 10.2469L29.5105 10.2469L29.5868 10.376ZM30.4268 9.536L30.2977 9.45969L30.2977 9.45969L30.4268 9.536ZM30.3668 7.124L30.2404 7.20471L30.2416 7.20659L30.3668 7.124ZM29.3588 6.284L29.4176 6.14598L29.4157 6.14522L29.3588 6.284ZM25.3028 6.092V5.942H25.1528V6.092H25.3028ZM25.3028 10.688H25.1528V10.838H25.3028V10.688ZM29.6348 5.924L29.5714 6.05993C30.0256 6.27188 30.379 6.58436 30.6352 6.99887L30.7628 6.92L30.8904 6.84113C30.6026 6.37564 30.2041 6.02412 29.6982 5.78807L29.6348 5.924ZM30.7628 6.92L30.6363 7.00053C30.9005 7.41577 31.0328 7.87569 31.0328 8.384H31.1828H31.3328C31.3328 7.82031 31.1851 7.30423 30.8894 6.83947L30.7628 6.92ZM31.1828 8.384H31.0328C31.0328 8.97457 30.852 9.50231 30.4882 9.97217L30.6068 10.064L30.7254 10.1558C31.1297 9.63369 31.3328 9.04143 31.3328 8.384H31.1828ZM30.6068 10.064L30.488 9.97245C30.1319 10.4346 29.6758 10.7398 29.1157 10.8912L29.1548 11.036L29.1939 11.1808C29.8178 11.0122 30.3297 10.6694 30.7256 10.1556L30.6068 10.064ZM29.1548 11.036L29.0329 11.1234L31.1569 14.0874L31.2788 14L31.4007 13.9126L29.2767 10.9486L29.1548 11.036ZM31.2788 14V13.85H30.7508V14V14.15H31.2788V14ZM30.7508 14L30.873 13.913L28.821 11.033L28.6988 11.12L28.5766 11.207L30.6286 14.087L30.7508 14ZM28.6988 11.12L28.6941 10.9701L28.3101 10.9821L28.3148 11.132L28.3195 11.2819L28.7035 11.2699L28.6988 11.12ZM28.3148 11.132V10.982H25.3028V11.132V11.282H28.3148V11.132ZM25.3028 11.132H25.1528V14H25.3028H25.4528V11.132H25.3028ZM25.3028 14V13.85H24.8588V14V14.15H25.3028V14ZM24.8588 14H25.0088V5.648H24.8588H24.7088V14H24.8588ZM24.8588 5.648V5.798H28.0388V5.648V5.498H24.8588V5.648ZM28.0388 5.648V5.798C28.3847 5.798 28.6746 5.82164 28.9103 5.86727L28.9388 5.72L28.9673 5.57273C28.7071 5.52236 28.397 5.498 28.0388 5.498V5.648ZM28.9388 5.72L28.9157 5.8682C29.1597 5.90633 29.3781 5.97072 29.572 6.06019L29.6348 5.924L29.6977 5.78781C29.4755 5.68528 29.2299 5.61367 28.962 5.5718L28.9388 5.72ZM28.4348 10.688V10.838C28.8772 10.838 29.2876 10.727 29.6631 10.5051L29.5868 10.376L29.5105 10.2469C29.182 10.441 28.8245 10.538 28.4348 10.538V10.688ZM29.5868 10.376L29.6631 10.5051C30.0369 10.2843 30.3351 9.98609 30.556 9.61231L30.4268 9.536L30.2977 9.45969C30.1025 9.78991 29.8407 10.0517 29.5105 10.2469L29.5868 10.376ZM30.4268 9.536L30.556 9.61231C30.7779 9.23678 30.8888 8.82635 30.8888 8.384H30.7388H30.5888C30.5888 8.77365 30.4918 9.13122 30.2977 9.45969L30.4268 9.536ZM30.7388 8.384H30.8888C30.8888 7.89157 30.7567 7.44269 30.492 7.04141L30.3668 7.124L30.2416 7.20659C30.4729 7.55731 30.5888 7.94842 30.5888 8.384H30.7388ZM30.3668 7.124L30.4933 7.04329C30.2361 6.64043 29.8759 6.34118 29.4176 6.146L29.3588 6.284L29.3 6.422C29.7058 6.59482 30.0175 6.85557 30.2404 7.20471L30.3668 7.124ZM29.3588 6.284L29.4157 6.14522C29.0774 6.00642 28.6148 5.942 28.0388 5.942V6.092V6.242C28.5988 6.242 29.0162 6.30558 29.3019 6.42278L29.3588 6.284ZM28.0388 6.092V5.942H25.3028V6.092V6.242H28.0388V6.092ZM25.3028 6.092H25.1528V10.688H25.3028H25.4528V6.092H25.3028ZM25.3028 10.688V10.838H28.4348V10.688V10.538H25.3028V10.688ZM38.4336 5.936L38.3573 6.06515L38.3588 6.06599L38.4336 5.936ZM39.6816 7.184L39.5516 7.25885L39.5525 7.26031L39.6816 7.184ZM39.6816 12.464L39.5525 12.3877L39.5516 12.3892L39.6816 12.464ZM38.4336 13.724L38.5085 13.854L38.5099 13.8531L38.4336 13.724ZM34.9776 13.724L34.9013 13.8531L34.9028 13.854L34.9776 13.724ZM33.7176 12.464L33.5876 12.5388L33.5885 12.5403L33.7176 12.464ZM33.7176 7.184L33.5885 7.10769L33.5876 7.10916L33.7176 7.184ZM34.9776 5.936L35.0525 6.066L35.0539 6.06514L34.9776 5.936ZM34.1016 12.248L33.9712 12.3222L33.9728 12.3248L34.1016 12.248ZM35.1936 13.34L35.1168 13.4689L35.1194 13.4704L35.1936 13.34ZM38.2056 13.34L38.2808 13.4698L38.2815 13.4694L38.2056 13.34ZM39.2976 12.248L39.1682 12.1721L39.1678 12.1728L39.2976 12.248ZM39.2976 7.412L39.1672 7.48619L39.1688 7.48884L39.2976 7.412ZM38.2056 6.32L38.1288 6.44885L38.1314 6.45037L38.2056 6.32ZM35.1936 6.32L35.2688 6.44982L35.2695 6.4494L35.1936 6.32ZM34.1016 7.412L33.9722 7.33614L33.9718 7.33684L34.1016 7.412ZM36.7056 5.468V5.618C37.3033 5.618 37.8528 5.76704 38.3573 6.06514L38.4336 5.936L38.5099 5.80686C37.9584 5.48096 37.356 5.318 36.7056 5.318V5.468ZM38.4336 5.936L38.3588 6.06599C38.8639 6.35679 39.2608 6.75377 39.5516 7.25884L39.6816 7.184L39.8116 7.10916C39.4944 6.55823 39.0594 6.12321 38.5085 5.80601L38.4336 5.936ZM39.6816 7.184L39.5525 7.26031C39.8506 7.76478 39.9996 8.31435 39.9996 8.912H40.1496H40.2996C40.2996 8.26165 40.1367 7.65922 39.8108 7.10769L39.6816 7.184ZM40.1496 8.912H39.9996V10.736H40.1496H40.2996V8.912H40.1496ZM40.1496 10.736H39.9996C39.9996 11.3336 39.8506 11.8832 39.5525 12.3877L39.6816 12.464L39.8108 12.5403C40.1367 11.9888 40.2996 11.3864 40.2996 10.736H40.1496ZM39.6816 12.464L39.5516 12.3892C39.2606 12.8946 38.8632 13.2959 38.3573 13.5949L38.4336 13.724L38.5099 13.8531C39.0601 13.5281 39.4946 13.0894 39.8116 12.5388L39.6816 12.464ZM38.4336 13.724L38.3588 13.594C37.8541 13.8846 37.304 14.03 36.7056 14.03V14.18V14.33C37.3552 14.33 37.9571 14.1714 38.5085 13.854L38.4336 13.724ZM36.7056 14.18V14.03C36.1072 14.03 35.5571 13.8846 35.0525 13.594L34.9776 13.724L34.9028 13.854C35.4541 14.1714 36.056 14.33 36.7056 14.33V14.18ZM34.9776 13.724L35.0539 13.5949C34.5477 13.2957 34.1459 12.8939 33.8468 12.3877L33.7176 12.464L33.5885 12.5403C33.9134 13.0901 34.3515 13.5283 34.9013 13.8531L34.9776 13.724ZM33.7176 12.464L33.8476 12.3892C33.5571 11.8845 33.4116 11.3344 33.4116 10.736H33.2616H33.1116C33.1116 11.3856 33.2702 11.9875 33.5876 12.5388L33.7176 12.464ZM33.2616 10.736H33.4116V8.912H33.2616H33.1116V10.736H33.2616ZM33.2616 8.912H33.4116C33.4116 8.3136 33.5571 7.76351 33.8476 7.25884L33.7176 7.184L33.5876 7.10916C33.2702 7.66049 33.1116 8.2624 33.1116 8.912H33.2616ZM33.7176 7.184L33.8468 7.26031C34.1457 6.75443 34.5471 6.35699 35.0525 6.06599L34.9776 5.936L34.9028 5.80601C34.3522 6.12301 33.9136 6.55757 33.5885 7.10769L33.7176 7.184ZM34.9776 5.936L35.0539 6.06514C35.5584 5.76704 36.108 5.618 36.7056 5.618V5.468V5.318C36.0553 5.318 35.4528 5.48096 34.9013 5.80686L34.9776 5.936ZM33.7056 10.736H33.5556C33.5556 11.3055 33.6941 11.8351 33.9713 12.3222L34.1016 12.248L34.232 12.1738C33.9811 11.7329 33.8556 11.2545 33.8556 10.736H33.7056ZM34.1016 12.248L33.9728 12.3248C34.2575 12.8022 34.6394 13.1841 35.1168 13.4688L35.1936 13.34L35.2705 13.2112C34.8358 12.9519 34.4897 12.6058 34.2304 12.1712L34.1016 12.248ZM35.1936 13.34L35.1194 13.4704C35.6065 13.7475 36.1361 13.886 36.7056 13.886V13.736V13.586C36.1871 13.586 35.7088 13.4605 35.2678 13.2096L35.1936 13.34ZM36.7056 13.736V13.886C37.2751 13.886 37.8012 13.7475 38.2808 13.4698L38.2056 13.34L38.1305 13.2102C37.6981 13.4605 37.2241 13.586 36.7056 13.586V13.736ZM38.2056 13.34L38.2815 13.4694C38.7674 13.1846 39.1502 12.8021 39.4274 12.3232L39.2976 12.248L39.1678 12.1728C38.9171 12.6059 38.5719 12.9514 38.1298 13.2106L38.2056 13.34ZM39.2976 12.248L39.427 12.3239C39.7127 11.8366 39.8556 11.3063 39.8556 10.736H39.7056H39.5556C39.5556 11.2537 39.4266 11.7314 39.1682 12.1721L39.2976 12.248ZM39.7056 10.736H39.8556V8.912H39.7056H39.5556V10.736H39.7056ZM39.7056 8.912H39.8556C39.8556 8.34164 39.7127 7.81499 39.4264 7.33516L39.2976 7.412L39.1688 7.48884C39.4266 7.92101 39.5556 8.39436 39.5556 8.912H39.7056ZM39.2976 7.412L39.428 7.33782C39.1507 6.85038 38.7672 6.46696 38.2798 6.18962L38.2056 6.32L38.1314 6.45037C38.572 6.70104 38.9166 7.04562 39.1673 7.48618L39.2976 7.412ZM38.2056 6.32L38.2825 6.19118C37.8026 5.90496 37.276 5.762 36.7056 5.762V5.912V6.062C37.2233 6.062 37.6966 6.19104 38.1288 6.44882L38.2056 6.32ZM36.7056 5.912V5.762C36.1353 5.762 35.605 5.90495 35.1178 6.19059L35.1936 6.32L35.2695 6.4494C35.7102 6.19105 36.188 6.062 36.7056 6.062V5.912ZM35.1936 6.32L35.1185 6.19019C34.6395 6.46746 34.2571 6.85026 33.9722 7.33614L34.1016 7.412L34.231 7.48786C34.4902 7.04574 34.8357 6.70054 35.2688 6.44981L35.1936 6.32ZM34.1016 7.412L33.9718 7.33684C33.6941 7.81645 33.5556 8.3425 33.5556 8.912H33.7056H33.8556C33.8556 8.3935 33.9811 7.91955 34.2314 7.48716L34.1016 7.412ZM33.7056 8.912H33.5556V10.736H33.7056H33.8556V8.912H33.7056Z" fill="#81B5FF"/>
</svg>